<svg width="350" height="440" viewBox="0 0 350 440" fill="none" xmlns="http://www.w3.org/2000/svg">
<path fill-rule="evenodd" clip-rule="evenodd" d="M18 1H332C341.389 1 349 8.61116 349 18V422C349 431.389 341.389 439 332 439H18C8.61115 439 1 431.389 1 422V18C1 8.61117 8.61116 1 18 1ZM0 18C0 8.05888 8.05888 0 18 0H332C341.941 0 350 8.05887 350 18V422C350 431.941 341.941 440 332 440H18C8.05887 440 0 431.941 0 422V18ZM22 13H328C334.075 13 339 17.9249 339 24V415C339 421.075 334.075 426 328 426H22C15.9249 426 11 421.075 11 415V24C11 17.9249 15.9249 13 22 13ZM10 24C10 17.3726 15.3726 12 22 12H328C334.627 12 340 17.3726 340 24V415C340 421.627 334.627 427 328 427H22C15.3726 427 10 421.627 10 415V24Z" fill="#8E3A0A"/>
</svg>
